<svg height="512" viewBox="0 0 60 56" width="512" 
    xmlns="http://www.w3.org/2000/svg">
    <defs>
    <linearGradient id="sampleGradient" gradientTransform="rotate(90)">
        <stop offset="0%" stop-color="#5516A5" />
        <stop offset="100%" stop-color="#1F44A5" />
    </linearGradient>
</defs>
    <g id="Page-1" fill="url(#sampleGradient)" fill-rule="evenodd">
        <g id="020---Hammer" fill-rule="nonzero" transform="translate(0 -1)">
            <path id="Shape" d="m59.12 17.576-1.758-1.758c-.985793-.9410827-2.537207-.9410827-3.523 0-.0925666.0933127-.2185625.1457983-.35.1457983s-.2574334-.0524856-.35-.1457983l-2.11-2.109c-.0933127-.0925666-.1457983-.2185625-.1457983-.35s.0524856-.2574334.1457983-.35c.4680096-.4669406.7310247-1.1008899.7310247-1.762s-.2630151-1.2950594-.7310247-1.762l-5.34-5.335c-.29-.24-7.2-5.853-17.458-1.56-.8740365.36228712-1.3770774 1.28508398-1.208 2.216.1464137.91947037.9253887 1.60527056 1.856 1.634 3.711.173 8.173 1.35 8.789 5.86l-10.9 10.9-2.949 2.95c-1.1401193-.5157434-2.4790581-.2891599-3.386.573l-18.964 18.964c-1.94926942 1.9539823-1.94926942 5.1170177 0 7.071l2.781 2.781c1.95398226 1.9492694 5.11701774 1.9492694 7.071 0l18.961-18.961c1.1662192-1.1670853 1.1711335-3.0568651.011-4.23l2.807-2.809 10.742-10.739c.1654629.0463324.3361953.0712029.508.074.5265969.0024577 1.0317086-.2086068 1.4-.585l2.812 2.805-.7.7c-.7754472.7800749-.7754472 2.0399251 0 2.82l2.11 2.11c1.1684066 1.1644675 3.0585934 1.1644675 4.227 0l4.921-4.924c1.1630238-1.1678323 1.1630238-3.0561677 0-4.224zm-31.646 7.747 3.508 3.507-2.1 2.1-2.341-2.341-1.167-1.168zm1.394 9.84-18.961 18.962c-1.17275366 1.169058-3.07024634 1.169058-4.243 0l-2.781-2.781c-1.16905805-1.1727537-1.16905805-3.0702463 0-4.243l18.962-18.961c.3904999-.3903819 1.0235001-.3903819 1.414 0l.01.011 5.6 5.6c.3897159.3903851.3897159 1.0226149 0 1.413zm3.532-7.747-3.508-3.507 9.837-9.837 3.507 3.508zm25.31-7.027-4.922 4.922c-.3870661.3854708-1.0129339.3854708-1.4 0l-2.11-2.1.7-.7c.7754472-.7800749.7754472-2.0399251 0-2.82l-2.812-2.812c-.3733492-.3755881-.8814204-.5862343-1.411-.585-.5263826-.0023774-1.0313447.2082639-1.4.584l-4.668-4.668c-.542-4.714-4.33-7.465-10.678-7.765 9.106-3.809 15.153 1.046 15.338 1.19l5.273 5.275c.0943178.0920267.1475018.2182246.1475018.35s-.053184.2579733-.1475018.35c-.9712716.9735027-.9712716 2.5494973 0 3.523l2.11 2.11c.9749768.9686465 2.5490232.9686465 3.524 0 .0922992-.093812.2183952-.1466441.35-.1466441s.2577008.0528321.35.1466441l1.758 1.758c.3759092.3872651.3732432 1.0039993-.006 1.388z"/>
            <path id="Shape" d="m20.438 32.343-10.546 10.547c-.2759624.2473987-.39246252.6271353-.30272048.9867291.08974203.3595939.37100626.6400624.73085288.7287854.3598466.088723.7392517-.0288524.9858676-.3055145l10.547-10.543c.2525868-.2527654.3511378-.6210837.25853-.966213-.0926079-.3451292-.3623054-.6146361-.7075-.707-.3451947-.0923638-.7134432.0064476-.96603.259213z"/>
            <path id="Shape" d="m7.078 45.7-2.109 2.112c-.25995658.2510745-.3642126.6228779-.27269716.9725073.09151544.3496295.3645604.6226744.71418984.7141899.34962943.0915154.72143285-.0127406.97250732-.2726972l2.109-2.109c.25312267-.2525868.35226422-.6210259.260079-.96653-.09218523-.345504-.3616921-.6155827-.707-.7085-.3453079-.0929172-.71395633.0054432-.967079.25803z"/>
            <path id="Shape" d="m53 39c-.5522847 0-1 .4477153-1 1v8c0 .5522847.4477153 1 1 1s1-.4477153 1-1v-8c0-.5522847-.4477153-1-1-1z"/>
            <path id="Shape" d="m53 30c-.5522847 0-1 .4477153-1 1v4c0 .5522847.4477153 1 1 1s1-.4477153 1-1v-4c0-.5522847-.4477153-1-1-1z"/>
            <path id="Shape" d="m58 26c-.5522847 0-1 .4477153-1 1v2c0 .5522847.4477153 1 1 1s1-.4477153 1-1v-2c0-.5522847-.4477153-1-1-1z"/>
            <path id="Shape" d="m58 32c-.5522847 0-1 .4477153-1 1v14c0 .5522847.4477153 1 1 1s1-.4477153 1-1v-14c0-.5522847-.4477153-1-1-1z"/>
            <path id="Shape" d="m58 51c-.5522847 0-1 .4477153-1 1v2c0 .5522847.4477153 1 1 1s1-.4477153 1-1v-2c0-.5522847-.4477153-1-1-1z"/>
        </g>
    </g>
</svg>